<svg width="201" height="50" viewBox="0 0 201 50" fill="none" xmlns="http://www.w3.org/2000/svg">
<path fill-rule="evenodd" clip-rule="evenodd" d="M155.654 37.7336L132.885 8.27387L132.529 7.81524L132.265 7.6347H131.199H130.972H129.086H128.491L128.492 9.03507V47.4519V49.2883V49.5072H128.717H130.604H132.245H134.132H134.356V49.2883V47.4519L134.36 19.7141L157.556 49.6226L157.83 49.808L158.714 49.8038H158.941H160.827H161.516V49.585L161.519 48.388V9.9721V8.1349V7.91587H161.294H159.409H157.767H155.881H155.656V8.1349V9.9721L155.654 37.7336ZM6.09864 28.8628C6.01944 20.0121 12.5601 13.2815 21.3241 13.207C26.1174 13.1662 30.3732 15.0685 33.3075 18.564L34.4614 19.941L34.5991 20.1051L34.7719 19.9764L36.223 18.8971L37.5719 17.8946L39.1383 16.7291L39.325 16.5903L39.1745 16.4151L37.9119 14.9422C33.7475 10.0854 27.8384 7.44144 21.2731 7.4972C9.09904 7.60058 -0.0461041 16.804 0.00017486 28.9045C0.170694 41.0037 9.47955 50.0513 21.6535 49.9477C28.2187 49.8918 34.0797 47.1477 38.1565 42.2209L39.3924 40.7268L39.5397 40.549L39.3506 40.4133L37.7635 39.2746L36.3966 38.2954L34.9266 37.2408L34.7513 37.1151L34.6168 37.2815L33.4877 38.6778C30.6165 42.2226 26.3956 44.1971 21.6023 44.2379C12.8384 44.3124 6.17807 37.7134 6.09864 28.8628ZM45.8461 28.6667C45.8461 20.1066 52.9711 13.1672 61.7604 13.1672C70.5497 13.1672 77.6745 20.1066 77.6745 28.6667C77.6745 37.2271 70.5497 44.1663 61.7604 44.1663C52.9711 44.1663 45.8461 37.2271 45.8461 28.6667ZM39.8567 28.6667C39.8567 16.8847 49.6631 7.33361 61.7604 7.33361C73.8576 7.33361 83.6642 16.8847 83.6642 28.6667C83.6642 40.4488 73.8576 50 61.7604 50C49.6631 50 39.8567 40.4488 39.8567 28.6667ZM117.363 49.5172H119.173H121.06H121.284V49.2981V47.4617V9.98192V8.14472V7.9257H121.06H119.173H117.363H115.476H115.252V8.14472V9.98192V47.4617V49.2981V49.5172H115.476H117.363ZM172.917 41.5368C175.883 46.9677 181.046 49.9586 187.457 49.9586C195.684 49.9586 201 45.4734 201 38.5319C201 31.9158 196.863 28.5804 190.652 25.6081L190.113 25.3495L188.927 24.7817L187.201 23.9555C182.015 21.4858 180.966 20.4516 180.966 17.8087C180.966 15.06 183.193 13.1404 186.382 13.1404C189.638 13.1404 191.709 14.2033 193.308 16.6942L194.277 18.2048L194.392 18.3847L194.581 18.278L196.161 17.3806L197.519 16.6083L199.195 15.6573L199.395 15.5436L199.273 15.3523L198.248 13.7481C195.523 9.47521 191.753 7.48496 186.382 7.48496C179.781 7.48496 174.99 11.8267 174.99 17.8087C174.99 24.0274 179.133 26.4976 184.549 29.0803L188.066 30.7384C193.333 33.1992 195.023 35.093 195.023 38.5319C195.023 42.1642 192.265 44.2474 187.457 44.2474C183.378 44.2474 180.082 42.3079 178.178 38.7864L177.278 37.1248L177.171 36.9269L176.969 37.0356L175.284 37.9483L173.756 38.774L172.137 39.65L171.944 39.7547L172.048 39.944L172.917 41.5368ZM167.66 21.7424H169.47H171.358H171.583V21.5234V20.5723V1.16924V0.218891V3.8147e-06H171.358H169.47H167.66H165.774H165.55V0.218891V1.16924V20.5723V21.5234V21.7424H165.774H167.66ZM93.503 43.8598V9.98192V8.92529V8.7064H93.2783H91.3929H89.5822H87.6948H87.47V8.92529V9.98192V47.4617V49.2981V49.5172H87.6948H89.5822H110.01H111.452L111.454 43.8607H110.01L93.503 43.8598Z" fill="#231F20"/>
</svg>
